<mxfile host="www.draw.io" modified="2019-12-19T01:19:05.938Z" agent="Mozilla/5.0 (Macintosh; Intel Mac OS X 10_14_0) AppleWebKit/537.36 (KHTML, like Gecko) Chrome/79.0.3945.79 Safari/537.36" etag="voiUmH-IuLlPPkP9FErM" version="12.4.3" type="github" pages="1">
  <diagram id="pdaxE4Kh6YPGMGHGoSSB" name="Page-1">
    <mxGraphModel dx="946" dy="485" grid="1" gridSize="10" guides="1" tooltips="1" connect="1" arrows="1" fold="1" page="1" pageScale="1" pageWidth="827" pageHeight="1169" math="0" shadow="0">
      <root>
        <mxCell id="0"/>
        <mxCell id="1" parent="0"/>
        <mxCell id="qMRMNwqfj4nhVxI5yPa8-1" value="动态表格" style="swimlane;fontStyle=1;align=center;verticalAlign=top;childLayout=stackLayout;horizontal=1;startSize=26;horizontalStack=0;resizeParent=1;resizeParentMax=0;resizeLast=0;collapsible=1;marginBottom=0;" parent="1" vertex="1">
          <mxGeometry x="90" y="140" width="160" height="86" as="geometry"/>
        </mxCell>
        <mxCell id="qMRMNwqfj4nhVxI5yPa8-2" value="+ field: type" style="text;strokeColor=none;fillColor=none;align=left;verticalAlign=top;spacingLeft=4;spacingRight=4;overflow=hidden;rotatable=0;points=[[0,0.5],[1,0.5]];portConstraint=eastwest;" parent="qMRMNwqfj4nhVxI5yPa8-1" vertex="1">
          <mxGeometry y="26" width="160" height="26" as="geometry"/>
        </mxCell>
        <mxCell id="qMRMNwqfj4nhVxI5yPa8-3" value="" style="line;strokeWidth=1;fillColor=none;align=left;verticalAlign=middle;spacingTop=-1;spacingLeft=3;spacingRight=3;rotatable=0;labelPosition=right;points=[];portConstraint=eastwest;" parent="qMRMNwqfj4nhVxI5yPa8-1" vertex="1">
          <mxGeometry y="52" width="160" height="8" as="geometry"/>
        </mxCell>
        <mxCell id="qMRMNwqfj4nhVxI5yPa8-4" value="+ method(type): type" style="text;strokeColor=none;fillColor=none;align=left;verticalAlign=top;spacingLeft=4;spacingRight=4;overflow=hidden;rotatable=0;points=[[0,0.5],[1,0.5]];portConstraint=eastwest;" parent="qMRMNwqfj4nhVxI5yPa8-1" vertex="1">
          <mxGeometry y="60" width="160" height="26" as="geometry"/>
        </mxCell>
        <mxCell id="qMRMNwqfj4nhVxI5yPa8-5" value="动态表格容器" style="swimlane;fontStyle=0;childLayout=stackLayout;horizontal=1;startSize=26;fillColor=none;horizontalStack=0;resizeParent=1;resizeParentMax=0;resizeLast=0;collapsible=1;marginBottom=0;" parent="1" vertex="1">
          <mxGeometry x="410" y="131" width="140" height="130" as="geometry"/>
        </mxCell>
        <mxCell id="qMRMNwqfj4nhVxI5yPa8-6" value="+ field: type" style="text;strokeColor=none;fillColor=none;align=left;verticalAlign=top;spacingLeft=4;spacingRight=4;overflow=hidden;rotatable=0;points=[[0,0.5],[1,0.5]];portConstraint=eastwest;" parent="qMRMNwqfj4nhVxI5yPa8-5" vertex="1">
          <mxGeometry y="26" width="140" height="26" as="geometry"/>
        </mxCell>
        <mxCell id="qMRMNwqfj4nhVxI5yPa8-7" value="+ field: type" style="text;strokeColor=none;fillColor=none;align=left;verticalAlign=top;spacingLeft=4;spacingRight=4;overflow=hidden;rotatable=0;points=[[0,0.5],[1,0.5]];portConstraint=eastwest;" parent="qMRMNwqfj4nhVxI5yPa8-5" vertex="1">
          <mxGeometry y="52" width="140" height="26" as="geometry"/>
        </mxCell>
        <mxCell id="qMRMNwqfj4nhVxI5yPa8-8" value="+ field: type" style="text;strokeColor=none;fillColor=none;align=left;verticalAlign=top;spacingLeft=4;spacingRight=4;overflow=hidden;rotatable=0;points=[[0,0.5],[1,0.5]];portConstraint=eastwest;" parent="qMRMNwqfj4nhVxI5yPa8-5" vertex="1">
          <mxGeometry y="78" width="140" height="26" as="geometry"/>
        </mxCell>
        <mxCell id="43Ai_zPexianX6jVclkj-5" value="+ method(type): type" style="text;strokeColor=none;fillColor=none;align=left;verticalAlign=top;spacingLeft=4;spacingRight=4;overflow=hidden;rotatable=0;points=[[0,0.5],[1,0.5]];portConstraint=eastwest;" vertex="1" parent="qMRMNwqfj4nhVxI5yPa8-5">
          <mxGeometry y="104" width="140" height="26" as="geometry"/>
        </mxCell>
        <mxCell id="qMRMNwqfj4nhVxI5yPa8-10" value="文本框控件" style="swimlane;fontStyle=1;align=center;verticalAlign=top;childLayout=stackLayout;horizontal=1;startSize=26;horizontalStack=0;resizeParent=1;resizeParentMax=0;resizeLast=0;collapsible=1;marginBottom=0;" parent="1" vertex="1">
          <mxGeometry x="90" y="330" width="160" height="86" as="geometry"/>
        </mxCell>
        <mxCell id="qMRMNwqfj4nhVxI5yPa8-11" value="+ field: type" style="text;strokeColor=none;fillColor=none;align=left;verticalAlign=top;spacingLeft=4;spacingRight=4;overflow=hidden;rotatable=0;points=[[0,0.5],[1,0.5]];portConstraint=eastwest;" parent="qMRMNwqfj4nhVxI5yPa8-10" vertex="1">
          <mxGeometry y="26" width="160" height="26" as="geometry"/>
        </mxCell>
        <mxCell id="qMRMNwqfj4nhVxI5yPa8-12" value="" style="line;strokeWidth=1;fillColor=none;align=left;verticalAlign=middle;spacingTop=-1;spacingLeft=3;spacingRight=3;rotatable=0;labelPosition=right;points=[];portConstraint=eastwest;" parent="qMRMNwqfj4nhVxI5yPa8-10" vertex="1">
          <mxGeometry y="52" width="160" height="8" as="geometry"/>
        </mxCell>
        <mxCell id="qMRMNwqfj4nhVxI5yPa8-13" value="+ method(type): type" style="text;strokeColor=none;fillColor=none;align=left;verticalAlign=top;spacingLeft=4;spacingRight=4;overflow=hidden;rotatable=0;points=[[0,0.5],[1,0.5]];portConstraint=eastwest;" parent="qMRMNwqfj4nhVxI5yPa8-10" vertex="1">
          <mxGeometry y="60" width="160" height="26" as="geometry"/>
        </mxCell>
        <mxCell id="qMRMNwqfj4nhVxI5yPa8-14" value="下拉控件" style="swimlane;fontStyle=1;align=center;verticalAlign=top;childLayout=stackLayout;horizontal=1;startSize=26;horizontalStack=0;resizeParent=1;resizeParentMax=0;resizeLast=0;collapsible=1;marginBottom=0;" parent="1" vertex="1">
          <mxGeometry x="290" y="330" width="160" height="86" as="geometry"/>
        </mxCell>
        <mxCell id="qMRMNwqfj4nhVxI5yPa8-15" value="+ field: type" style="text;strokeColor=none;fillColor=none;align=left;verticalAlign=top;spacingLeft=4;spacingRight=4;overflow=hidden;rotatable=0;points=[[0,0.5],[1,0.5]];portConstraint=eastwest;" parent="qMRMNwqfj4nhVxI5yPa8-14" vertex="1">
          <mxGeometry y="26" width="160" height="26" as="geometry"/>
        </mxCell>
        <mxCell id="qMRMNwqfj4nhVxI5yPa8-16" value="" style="line;strokeWidth=1;fillColor=none;align=left;verticalAlign=middle;spacingTop=-1;spacingLeft=3;spacingRight=3;rotatable=0;labelPosition=right;points=[];portConstraint=eastwest;" parent="qMRMNwqfj4nhVxI5yPa8-14" vertex="1">
          <mxGeometry y="52" width="160" height="8" as="geometry"/>
        </mxCell>
        <mxCell id="qMRMNwqfj4nhVxI5yPa8-17" value="+ method(type): type" style="text;strokeColor=none;fillColor=none;align=left;verticalAlign=top;spacingLeft=4;spacingRight=4;overflow=hidden;rotatable=0;points=[[0,0.5],[1,0.5]];portConstraint=eastwest;" parent="qMRMNwqfj4nhVxI5yPa8-14" vertex="1">
          <mxGeometry y="60" width="160" height="26" as="geometry"/>
        </mxCell>
        <mxCell id="qMRMNwqfj4nhVxI5yPa8-24" value="1" style="endArrow=open;html=1;endSize=12;startArrow=diamondThin;startSize=14;startFill=0;align=left;verticalAlign=bottom;exitX=0.438;exitY=1;exitDx=0;exitDy=0;exitPerimeter=0;" parent="1" source="qMRMNwqfj4nhVxI5yPa8-4" target="qMRMNwqfj4nhVxI5yPa8-10" edge="1">
          <mxGeometry x="-1" y="3" relative="1" as="geometry">
            <mxPoint x="150" y="260" as="sourcePoint"/>
            <mxPoint x="310" y="260" as="targetPoint"/>
          </mxGeometry>
        </mxCell>
        <mxCell id="qMRMNwqfj4nhVxI5yPa8-26" value="n" style="text;html=1;align=center;verticalAlign=middle;resizable=0;points=[];;labelBackgroundColor=#ffffff;" parent="qMRMNwqfj4nhVxI5yPa8-24" vertex="1" connectable="0">
          <mxGeometry x="0.617" y="1" relative="1" as="geometry">
            <mxPoint as="offset"/>
          </mxGeometry>
        </mxCell>
        <mxCell id="qMRMNwqfj4nhVxI5yPa8-27" value="1" style="endArrow=open;html=1;endSize=12;startArrow=diamondThin;startSize=14;startFill=0;align=left;verticalAlign=bottom;exitX=0.675;exitY=1.077;exitDx=0;exitDy=0;exitPerimeter=0;entryX=0.5;entryY=0;entryDx=0;entryDy=0;" parent="1" source="qMRMNwqfj4nhVxI5yPa8-4" target="qMRMNwqfj4nhVxI5yPa8-14" edge="1">
          <mxGeometry x="-1" y="3" relative="1" as="geometry">
            <mxPoint x="300" y="280" as="sourcePoint"/>
            <mxPoint x="460" y="280" as="targetPoint"/>
          </mxGeometry>
        </mxCell>
        <mxCell id="qMRMNwqfj4nhVxI5yPa8-28" value="n" style="text;html=1;align=center;verticalAlign=middle;resizable=0;points=[];;labelBackgroundColor=#ffffff;" parent="qMRMNwqfj4nhVxI5yPa8-27" vertex="1" connectable="0">
          <mxGeometry x="0.6622" y="2" relative="1" as="geometry">
            <mxPoint as="offset"/>
          </mxGeometry>
        </mxCell>
        <mxCell id="qMRMNwqfj4nhVxI5yPa8-29" value="页面/表单" style="swimlane;fontStyle=1;align=center;verticalAlign=top;childLayout=stackLayout;horizontal=1;startSize=26;horizontalStack=0;resizeParent=1;resizeParentMax=0;resizeLast=0;collapsible=1;marginBottom=0;" parent="1" vertex="1">
          <mxGeometry x="100" y="510" width="160" height="86" as="geometry"/>
        </mxCell>
        <mxCell id="qMRMNwqfj4nhVxI5yPa8-30" value="+ field: type" style="text;strokeColor=none;fillColor=none;align=left;verticalAlign=top;spacingLeft=4;spacingRight=4;overflow=hidden;rotatable=0;points=[[0,0.5],[1,0.5]];portConstraint=eastwest;" parent="qMRMNwqfj4nhVxI5yPa8-29" vertex="1">
          <mxGeometry y="26" width="160" height="26" as="geometry"/>
        </mxCell>
        <mxCell id="qMRMNwqfj4nhVxI5yPa8-31" value="" style="line;strokeWidth=1;fillColor=none;align=left;verticalAlign=middle;spacingTop=-1;spacingLeft=3;spacingRight=3;rotatable=0;labelPosition=right;points=[];portConstraint=eastwest;" parent="qMRMNwqfj4nhVxI5yPa8-29" vertex="1">
          <mxGeometry y="52" width="160" height="8" as="geometry"/>
        </mxCell>
        <mxCell id="qMRMNwqfj4nhVxI5yPa8-32" value="+ method(type): type" style="text;strokeColor=none;fillColor=none;align=left;verticalAlign=top;spacingLeft=4;spacingRight=4;overflow=hidden;rotatable=0;points=[[0,0.5],[1,0.5]];portConstraint=eastwest;" parent="qMRMNwqfj4nhVxI5yPa8-29" vertex="1">
          <mxGeometry y="60" width="160" height="26" as="geometry"/>
        </mxCell>
        <mxCell id="qMRMNwqfj4nhVxI5yPa8-33" value="«interface»&lt;br&gt;&lt;b&gt;行复制功能&lt;/b&gt;" style="html=1;" parent="1" vertex="1">
          <mxGeometry x="70" y="20" width="110" height="50" as="geometry"/>
        </mxCell>
        <mxCell id="qMRMNwqfj4nhVxI5yPa8-34" value="«interface»&lt;br&gt;&lt;b&gt;行删除功能&lt;/b&gt;" style="html=1;" parent="1" vertex="1">
          <mxGeometry x="210" y="20" width="110" height="50" as="geometry"/>
        </mxCell>
        <mxCell id="qMRMNwqfj4nhVxI5yPa8-35" value="«interface»&lt;br&gt;&lt;b&gt;数据保存功能&lt;/b&gt;" style="html=1;" parent="1" vertex="1">
          <mxGeometry x="350" y="20" width="110" height="50" as="geometry"/>
        </mxCell>
        <mxCell id="qMRMNwqfj4nhVxI5yPa8-36" value="" style="endArrow=block;dashed=1;endFill=0;endSize=12;html=1;exitX=0.356;exitY=-0.035;exitDx=0;exitDy=0;exitPerimeter=0;entryX=0.5;entryY=1;entryDx=0;entryDy=0;" parent="1" source="qMRMNwqfj4nhVxI5yPa8-1" target="qMRMNwqfj4nhVxI5yPa8-33" edge="1">
          <mxGeometry width="160" relative="1" as="geometry">
            <mxPoint x="50" y="120" as="sourcePoint"/>
            <mxPoint x="210" y="120" as="targetPoint"/>
          </mxGeometry>
        </mxCell>
        <mxCell id="qMRMNwqfj4nhVxI5yPa8-37" value="" style="endArrow=block;dashed=1;endFill=0;endSize=12;html=1;exitX=0.5;exitY=0;exitDx=0;exitDy=0;entryX=0.582;entryY=1.06;entryDx=0;entryDy=0;entryPerimeter=0;" parent="1" source="qMRMNwqfj4nhVxI5yPa8-1" target="qMRMNwqfj4nhVxI5yPa8-34" edge="1">
          <mxGeometry width="160" relative="1" as="geometry">
            <mxPoint x="210" y="100" as="sourcePoint"/>
            <mxPoint x="370" y="100" as="targetPoint"/>
          </mxGeometry>
        </mxCell>
        <mxCell id="qMRMNwqfj4nhVxI5yPa8-38" value="" style="endArrow=block;dashed=1;endFill=0;endSize=12;html=1;exitX=0.5;exitY=0;exitDx=0;exitDy=0;entryX=0.5;entryY=1;entryDx=0;entryDy=0;" parent="1" source="qMRMNwqfj4nhVxI5yPa8-1" target="qMRMNwqfj4nhVxI5yPa8-35" edge="1">
          <mxGeometry width="160" relative="1" as="geometry">
            <mxPoint x="250" y="120" as="sourcePoint"/>
            <mxPoint x="410" y="120" as="targetPoint"/>
          </mxGeometry>
        </mxCell>
        <mxCell id="43Ai_zPexianX6jVclkj-1" value="基础表格容器" style="swimlane;fontStyle=0;align=center;verticalAlign=top;childLayout=stackLayout;horizontal=1;startSize=26;horizontalStack=0;resizeParent=1;resizeParentMax=0;resizeLast=0;collapsible=1;marginBottom=0;" vertex="1" parent="1">
          <mxGeometry x="640" y="140" width="160" height="86" as="geometry"/>
        </mxCell>
        <mxCell id="43Ai_zPexianX6jVclkj-2" value="+ field: type" style="text;strokeColor=none;fillColor=none;align=left;verticalAlign=top;spacingLeft=4;spacingRight=4;overflow=hidden;rotatable=0;points=[[0,0.5],[1,0.5]];portConstraint=eastwest;" vertex="1" parent="43Ai_zPexianX6jVclkj-1">
          <mxGeometry y="26" width="160" height="26" as="geometry"/>
        </mxCell>
        <mxCell id="43Ai_zPexianX6jVclkj-3" value="" style="line;strokeWidth=1;fillColor=none;align=left;verticalAlign=middle;spacingTop=-1;spacingLeft=3;spacingRight=3;rotatable=0;labelPosition=right;points=[];portConstraint=eastwest;" vertex="1" parent="43Ai_zPexianX6jVclkj-1">
          <mxGeometry y="52" width="160" height="8" as="geometry"/>
        </mxCell>
        <mxCell id="43Ai_zPexianX6jVclkj-4" value="+ method(type): type" style="text;strokeColor=none;fillColor=none;align=left;verticalAlign=top;spacingLeft=4;spacingRight=4;overflow=hidden;rotatable=0;points=[[0,0.5],[1,0.5]];portConstraint=eastwest;" vertex="1" parent="43Ai_zPexianX6jVclkj-1">
          <mxGeometry y="60" width="160" height="26" as="geometry"/>
        </mxCell>
        <mxCell id="43Ai_zPexianX6jVclkj-6" value="Extends" style="endArrow=block;endSize=16;endFill=0;html=1;" edge="1" parent="1">
          <mxGeometry width="160" relative="1" as="geometry">
            <mxPoint x="550" y="190" as="sourcePoint"/>
            <mxPoint x="640" y="190" as="targetPoint"/>
          </mxGeometry>
        </mxCell>
        <mxCell id="43Ai_zPexianX6jVclkj-7" value="1" style="endArrow=open;html=1;endSize=12;startArrow=diamondThin;startSize=14;startFill=1;edgeStyle=orthogonalEdgeStyle;align=left;verticalAlign=bottom;" edge="1" parent="1">
          <mxGeometry x="-1" y="3" relative="1" as="geometry">
            <mxPoint x="250" y="180" as="sourcePoint"/>
            <mxPoint x="410" y="180" as="targetPoint"/>
          </mxGeometry>
        </mxCell>
      </root>
    </mxGraphModel>
  </diagram>
</mxfile>
